<svg width="1024" height="1024" viewBox="0 0 1024 1024" fill="none" xmlns="http://www.w3.org/2000/svg">
<path d="M847.644 908.204C838.927 908.149 831.844 905.433 825.237 901.414C820.503 898.551 819.108 892.954 821.567 888.219C823.971 883.576 829.477 881.594 834.523 883.631C835.661 884.09 836.707 884.732 837.79 885.265C847.809 890.164 852.874 888.715 858.765 879.099C860.197 876.768 861.353 874.254 862.637 871.832C863.133 870.877 863.518 869.868 864.087 868.969C866.858 864.491 872.162 862.858 876.859 864.968C881.337 866.987 884.127 872.088 882.383 876.731C878.456 887.118 873.134 896.716 863.683 903.267C858.637 906.754 853.003 908.406 847.663 908.185L847.644 908.204Z" fill="#FDFFFE"/>
<path d="M799.472 856.453C799.472 860.472 797.71 863.518 794.187 865.408C790.645 867.299 787.085 867.06 783.8 864.784C782.442 863.849 781.304 862.564 780.185 861.316C768.771 848.599 757.98 835.349 747.483 821.879C746.639 820.796 745.795 819.695 745.207 818.466C743.134 814.153 744.418 809.033 748.217 806.171C751.997 803.308 757.301 803.436 760.879 806.593C761.907 807.492 762.751 808.593 763.595 809.676C774.037 822.999 784.736 836.12 796.059 848.727C798.738 851.7 799.454 853.443 799.472 856.453Z" fill="#FDFFFE"/>
<path d="M722.085 780.387C717.148 780.405 714.487 778.368 712.212 775.451C704.908 766.073 697.549 756.714 690.154 747.392C686.649 742.969 683.015 738.656 679.4 734.325C676.592 730.949 675.95 727.187 677.583 723.205C680.116 717.02 688.153 715.259 693.292 719.7C694.668 720.892 695.806 722.36 696.962 723.773C707.514 736.436 717.736 749.337 727.737 762.421C728.765 763.761 729.811 765.064 730.416 766.642C733.022 773.304 728.159 780.405 722.067 780.369L722.085 780.387Z" fill="#FDFFFE"/>
<path d="M881.539 821.512C881.539 820.54 882.035 818.961 882.659 817.383C886.421 807.859 890.678 798.592 895.853 789.746C899.707 783.177 903.267 776.46 906.497 769.56C908.038 766.275 910.681 764.366 913.984 763.412C918.315 762.164 921.361 764.734 923.802 767.651C925.656 769.872 926.738 772.386 925.215 775.818C921.949 783.158 918.958 790.59 914.773 797.491C909.617 805.987 905.396 814.943 901.726 824.173C901.212 825.439 900.716 826.742 899.982 827.899C897.597 831.679 893.027 833.367 888.825 832.138C884.292 830.816 881.448 826.944 881.539 821.512Z" fill="#FDFFFE"/>
<path d="M267.158 643.689C269.892 643.762 272.645 643.579 275.324 644.423C280.15 645.964 283.086 650.424 282.462 655.323C281.839 660.223 277.82 664.334 272.81 663.893C258.165 662.645 246.072 668.683 234.492 676.464C232.217 677.987 230.033 679.694 227.702 681.144C222.986 684.061 217.059 683.089 214.214 679.052C210.709 674.042 211.186 668.5 215.994 664.829C227.482 656.076 239.484 648.203 254 645.212C258.349 644.313 262.698 643.56 267.158 643.689Z" fill="#FDFFFE"/>
<path d="M508.275 710.01C503.999 710.267 501.044 707.698 499.319 704.248C497.888 701.403 497.851 695.843 501.521 692.888C504.843 690.209 508.22 687.585 511.523 684.887C522.699 675.73 534.058 666.774 545.895 658.498C550.813 655.066 556.557 656.021 559.86 660.058C563.64 664.682 563.218 670.555 558.741 674.317C556.648 676.078 554.244 677.473 552.024 679.07C539.747 687.878 528.204 697.641 516.312 706.945C513.963 708.78 511.523 710.212 508.311 710.01H508.275Z" fill="#FDFFFE"/>
<path d="M423.253 751.539C417.436 751.906 413.178 751.447 408.939 750.952C402.938 750.254 399.048 745.575 399.562 740.033C400.094 734.325 404.498 730.435 410.609 730.912C417.95 731.481 425.217 731.536 432.466 730.123C441.201 728.416 449.532 725.553 457.478 721.571C461.956 719.332 467.37 720.232 470.398 723.755C473.315 727.15 473.591 732.27 471.058 736.105C469.921 737.83 468.306 738.932 466.489 739.794C452.303 746.566 437.531 751.098 423.235 751.539H423.253Z" fill="#FDFFFE"/>
<path d="M358.565 727.829C356.454 727.976 354.619 726.728 352.582 724.746C347.884 720.177 342.728 716.066 337.589 711.974C336.397 711.019 335.406 709.955 334.305 709.001C327.992 703.532 322.248 697.421 315.898 692.007C313.806 690.227 311.732 688.723 310.375 686.19C308.282 682.336 308.961 676.758 312.43 673.711C316.008 670.573 321.128 670.17 325.129 672.977C326.248 673.766 327.221 674.739 328.23 675.675C340.599 687.053 352.692 698.706 365.832 709.221C370.053 712.598 371.319 716.745 369.906 720.911C368.364 725.462 364.419 728.013 358.565 727.811V727.829Z" fill="#FDFFFE"/>
<path d="M170.997 711.57C163.748 709.79 156.609 708.12 150.15 703.771C141.249 697.788 133.065 690.98 125.192 683.786C122.513 681.345 120.292 678.317 120.017 674.409C119.687 669.729 121.32 666.701 125.284 664.664C129.046 662.719 133.542 663.324 136.735 666.279C139.763 669.087 142.644 672.023 145.69 674.812C150.205 678.941 154.921 682.832 160.17 686.007C165.179 689.035 170.391 691.347 176.466 691.457C180.98 691.549 184.301 694.522 185.458 698.687C186.595 702.835 185.109 707.441 181.622 709.606C178.411 711.588 174.74 711.735 170.997 711.57Z" fill="#FDFFFE"/>
<path d="M65.9359 573.88C69.386 573.935 72.1203 575.404 74.0472 578.23C75.1666 579.863 76.1759 581.57 77.1669 583.276C84.8377 596.452 93.0958 609.262 101.739 621.832C102.693 623.209 103.648 624.603 104.4 626.09C106.694 630.678 105.428 635.798 101.372 638.715C97.2248 641.707 91.6644 641.138 88.0675 637.321C87.4436 636.66 86.9114 635.908 86.3792 635.155C80.2499 626.255 74.1573 617.318 68.5418 608.069C64.9082 602.086 61.3297 596.067 57.7329 590.066C56.5217 588.066 55.7326 585.974 55.8244 583.588C56.0262 578.065 60.3938 573.825 65.9176 573.88H65.9359Z" fill="#FDFFFE"/>
<path d="M649.377 696.962C646.973 697.091 644.661 696.283 642.844 694.54C640.44 692.246 637.834 690.227 635.375 688.007C625.374 678.978 614.675 670.885 601.793 666.205C596.526 664.297 594.048 660.81 594.195 656.021C594.434 648.148 601.756 645.065 607.39 646.772C612.968 648.46 618.143 651.102 623.172 653.928C635.357 660.792 645.946 669.766 656.057 679.345C659.324 682.446 660.462 686.245 658.773 690.613C657.287 694.466 653.727 696.889 649.377 696.962Z" fill="#FDFFFE"/>
<path d="M939.584 732.821C931.124 732.71 926.004 726.141 928.647 719.791C934.482 705.826 943.988 695.659 959.807 693.237C963.551 692.668 967.368 692.081 971.166 693.035C975.277 694.063 977.791 696.76 978.672 700.798C979.535 704.706 978.177 707.991 975.149 710.597C973.846 711.717 972.341 712.432 970.616 712.616C969.717 712.708 968.781 712.781 967.881 712.763C959.201 712.524 953.035 716.47 948.961 724.012C948.172 725.48 947.401 726.985 946.466 728.38C944.447 731.389 941.566 732.839 939.565 732.839L939.584 732.821Z" fill="#FDFFFE"/>
<path d="M99.0048 368.401C102.767 362.107 106.584 355.849 111.502 350.325C119.393 341.462 128.752 334.782 140.057 331.075C154.609 326.304 169.382 321.991 184.705 321.184C206.158 320.046 226.711 323.826 245.264 335.534C252.256 339.939 259.285 344.288 265.304 349.995C274.736 358.951 278.921 369.888 276.186 382.771C274.131 392.442 267.891 398.736 258.551 402.168C252.018 404.572 245.411 404.058 238.75 403.599C237.52 403.526 236.603 402.755 235.575 402.076C230.437 398.663 226.289 394.222 222.674 389.359C219.004 384.422 214.398 381.504 208.36 380.348C201.607 379.045 194.927 377.32 188.063 376.806C177.255 375.999 167.473 378.77 158.867 385.395C156.169 387.468 153.912 389.946 152.811 393.286C151.563 397.048 152.168 399.323 155.178 401.856C157.399 403.728 159.803 405.379 162.5 406.499C169.364 409.343 176.19 412.316 183.384 414.298C195.753 417.711 208.085 421.308 220.013 426.043C237.997 433.181 254.88 442.229 268.809 456.029C271.745 458.947 274.369 462.121 276.59 465.626C279.82 470.746 281.618 476.068 281.27 482.418C280.407 497.668 280.223 512.973 279.104 528.223C278.957 530.278 278.407 532.076 277.416 533.838C273.397 540.995 268.038 547.033 261.725 552.226C245.283 565.751 226.436 573.917 205.46 577.331C196.23 578.835 186.962 579.624 177.622 579.551C165.051 579.459 153.196 575.991 141.525 571.697C137.965 570.394 134.57 568.65 130.789 567.788C127.816 567.109 125.724 564.558 123.063 563.09C110.988 556.392 100.822 547.418 92.8205 536.187C90.4165 532.81 89.0218 528.59 87.7555 524.516C85.5901 517.561 84.856 510.514 85.8837 503.247C87.8106 489.556 95.2061 482.528 108.694 480.454C122.201 478.362 136.863 486.07 141.396 498.677C146.883 513.945 157.821 521.781 173.309 523.727C184.76 525.176 196.193 524.626 207.369 521.212C212.966 519.506 217.921 516.386 223.316 514.257C224.527 513.78 225.28 512.826 225.592 511.56C227.188 505.284 226.895 499.356 221.903 494.548C217.37 490.18 212.361 486.547 206.305 484.418C204.066 483.629 202.212 481.831 200.028 480.84C192.064 477.206 183.714 474.857 175.126 473.224C174.924 473.004 174.685 472.82 174.41 472.673C164.17 469.223 154.114 465.223 143.984 461.516C136.57 458.8 130.587 453.973 123.779 450.45C123.522 450.211 123.247 449.973 122.99 449.734C122.384 449.331 121.448 449.496 121.1 448.633C120.861 448.413 120.604 448.174 120.366 447.954C116.255 445.183 112.603 441.733 109.428 438.118C105.575 433.732 102.125 428.814 99.6104 423.4C98.1423 420.244 96.8027 417.014 95.408 413.821C95.2612 413.564 95.0777 413.325 94.8575 413.105C94.1418 408.756 93.2976 404.407 92.7654 400.039C92.013 393.928 93.0774 387.891 93.8481 381.835C94.8758 381.339 95.2428 380.458 95.2245 379.376C95.3713 375.614 97.9038 372.567 98.4543 368.934C98.6745 368.768 98.858 368.567 99.0232 368.328L99.0048 368.401Z" fill="#FEFFFF"/>
<path d="M290.041 426.337C290.023 404.939 288.977 383.56 287.674 362.199C287.417 357.978 287.748 353.867 290.152 350.032C292.189 346.802 293.987 343.426 296.501 340.526C301.548 334.672 307.971 331.185 315.623 330.91C328.359 330.433 340.783 327.845 353.372 326.359C375.1 323.771 396.681 324.377 418.023 329.515C424.886 331.167 431.309 333.993 437.659 337.094C439.879 338.177 440.797 339.443 440.448 342.068C436.668 369.705 440.008 396.92 445.752 423.951C448.798 438.32 453.221 452.304 458.763 465.884C460.011 468.948 459.442 470.747 457.166 472.985C443.752 486.162 427.511 493.447 409.196 496.659C396.754 498.842 384.238 498.696 371.705 498.072C364.841 497.723 358.015 496.916 351.17 496.2C347.04 495.778 347.004 495.686 346.967 499.723C346.802 516.386 346.655 533.031 346.563 549.694C346.563 552.758 346.343 555.805 345.939 558.833C343.976 573.293 331.222 583.79 317.807 583.332C310.742 583.093 303.695 582.616 297.125 579.973C292.886 578.267 289.509 575.074 287.197 570.981C285.123 567.293 284.298 563.329 284.242 559.108C284.096 546.702 285.38 534.389 286.5 522.057C288.775 497.081 290.041 472.068 290.06 446.982C290.06 440.1 290.06 433.218 290.06 426.355L290.041 426.337ZM378.201 377.063C369.613 376.917 361.116 377.724 352.711 379.376C347.609 380.385 347.573 380.385 347.719 385.432C347.995 395.195 348.435 404.957 348.582 414.739C348.71 422.666 348.6 430.612 348.398 438.559C348.343 441.054 349.133 442.192 351.61 442.467C354.638 442.798 357.629 443.477 360.657 443.825C372.2 445.128 383.78 445.991 395.359 444.302C404.425 442.981 412.371 439.696 417.601 431.493C421.62 425.162 424.042 418.354 424.593 410.903C425.198 402.59 422.758 394.864 417.271 388.918C411.729 382.918 404.333 379.394 396.002 378.128C390.074 377.229 384.147 377.155 378.201 377.063Z" fill="#FEFFFF"/>
<path d="M897.413 398.185C889.907 397.892 882.603 396.222 875.189 395.231C870.033 394.552 864.858 394.203 859.664 394.277C856.141 394.332 856.067 394.405 855.976 397.873C855.737 406.425 855.48 414.977 855.425 423.528C855.168 457.442 855.792 491.336 857.15 525.213C857.499 533.911 858.104 542.591 858.545 551.29C858.637 552.96 858.582 554.648 858.6 556.318C858.141 556.905 858.178 557.474 858.673 558.025C858.949 560.612 859.279 563.181 859.481 565.769C860.692 581.202 852.14 591.773 836.78 593.608C830.835 594.305 824.889 593.865 819.053 592.323C810.079 589.956 804.097 584.377 800.922 575.715C798.885 570.192 798.078 564.466 798.133 558.612C798.279 543.325 797.674 528.057 797.27 512.771C796.72 492.144 795.875 471.535 795.215 450.908C794.848 439.439 795.49 427.988 795.93 416.537C796.151 411.031 796.408 405.544 796.554 400.039C796.646 396.479 796.554 396.369 793.068 396.35C786.498 396.332 779.928 396.46 773.358 396.497C767.523 396.534 767.743 396.919 767.981 391.138C768.532 377.522 768.569 363.942 766.348 350.435C765.761 346.839 765.229 343.242 764.678 339.645C764.862 339.406 765.045 339.168 765.247 338.911C775.983 338.635 786.718 338.672 797.417 339.792C798.279 340.544 799.179 340.562 800.078 339.865C807.694 339.498 815.273 340.397 822.888 340.526C834.908 340.746 846.929 340.526 858.949 339.938C859.866 340.599 860.729 340.544 861.573 339.81C877.282 337.956 892.935 337.608 908.405 341.59C914.975 343.278 921.288 345.701 927.252 348.949C935.987 353.702 939.896 362.804 938.336 373.54C936.354 387.211 925.343 400.369 907.378 399.176C904.955 399.011 902.533 398.644 900.11 398.369C899.266 397.616 898.385 397.561 897.468 398.204L897.413 398.185Z" fill="#FEFFFF"/>
<path d="M731.088 292.764C732.776 293.314 733.235 294.893 733.786 296.269C736.997 304.087 740.722 311.647 743.273 319.777C746.099 328.824 748.265 337.945 749.806 347.249C749.953 348.148 749.916 349.066 749.953 349.983C749.476 350.607 749.549 351.176 750.1 351.727C751.384 356.828 751.109 362.058 751.274 367.233C751.733 381.345 750.981 395.439 747.402 409.111C745.714 415.607 744.962 422.379 742.227 428.655C740.539 432.509 739.585 436.674 738.282 440.693C735.768 448.401 731.4 455.246 728.06 462.568C717.031 486.7 701.359 507.712 684.274 527.752C680.255 532.468 676.53 537.515 671.465 541.313C669.244 542.983 668.07 545.626 666.143 547.553C662.711 551.003 659.536 554.71 655.444 557.517C652.434 559.591 650.489 562.894 647.81 565.335C633.147 578.732 617.879 591.394 601.583 602.753C600.207 603.708 598.83 604.717 597.344 605.488C593.087 607.69 589.123 606.791 585.214 604.35C574.295 597.523 564.11 589.724 554.053 581.741C548.585 577.41 543.244 572.896 538.18 568.198C533.078 563.482 528.215 558.362 523.37 553.297C508.451 537.735 495.164 520.888 483.218 502.941C478.41 495.71 474.592 487.93 470.005 480.626C465.949 474.166 462.811 467.211 459.911 460.329C455.232 449.263 450.736 438.014 447.708 426.306C446.57 421.938 444.515 417.938 443.762 413.423C441.927 402.615 439.615 391.916 438.257 381.015C434.734 352.901 438.642 325.796 449.671 299.792C456.755 283.075 466.665 268.082 479.162 254.869C505.312 227.213 537.335 211.064 575.047 206.128C575.946 206.018 576.882 206.091 577.782 206.073C578.387 206.55 578.974 206.495 579.507 205.963C599.106 203.485 618.246 205.926 636.983 211.725C659.408 218.662 679.099 230.406 696.312 246.299C709.268 258.282 720.334 271.825 729.051 287.24C730.024 288.965 731.198 290.617 731.125 292.727L731.143 292.801L731.088 292.764ZM729.216 359.93C729.712 359.324 729.675 358.737 729.143 358.168C727.821 348.185 726.096 338.257 723.105 328.622C715.6 304.509 702.992 283.46 684.806 265.898C655.646 237.747 621.182 223.928 580.296 227.727C559.063 229.691 539.684 237.013 521.425 247.748C509.882 254.52 500.394 263.641 491.861 273.715C463.563 307.078 454.186 345.524 461.49 388.429C467.803 425.59 481.493 459.76 502.083 491.251C504.065 494.297 505.331 497.766 507.79 500.537C510.212 503.271 512.378 506.226 514.635 509.089C523.003 519.769 531.5 530.339 541.207 539.864C547.722 546.25 554.127 552.746 561.1 558.655C569.505 565.776 578.038 572.731 587.086 579.007C592.958 583.081 591.306 582.971 596.738 578.988C612.612 567.317 627.495 554.471 641.626 540.781C646.323 536.23 650.691 531.312 655.224 526.632C660.748 520.943 666.125 515.126 671.208 509.07C688.862 487.985 704.038 465.302 714.81 439.904C723.362 419.773 728.812 398.889 729.271 376.886C729.381 371.234 729.253 365.582 729.216 359.93Z" fill="#FEFFFF"/>
<path d="M592.995 262.998C650.214 263.2 695.744 308.931 696.019 365.435C696.294 422.654 650.379 468.771 593.142 468.899C536.436 469.028 490.632 422.948 490.265 366.261C489.916 311.592 533.94 263.42 592.995 262.998ZM512.359 366.095C512.396 410.726 548.713 446.988 593.27 446.896C637.827 446.804 674.016 410.469 673.979 365.838C673.942 321.282 637.552 284.983 593.013 285.038C548.438 285.093 512.323 321.41 512.359 366.114V366.095Z" fill="#FDFFFE"/>
</svg>
